<svg width="109" height="23" viewBox="0 0 109 23" fill="none" xmlns="http://www.w3.org/2000/svg">
<path d="M5.69531 17.3281C3.71484 17.3281 2.08594 16.5781 0.9375 15.1484L2.625 13.7188C3.48047 14.7383 4.39453 15.1719 5.69531 15.1719C7.24219 15.1719 8.12109 14.5508 8.13281 13.5078C8.12109 12.6875 7.55859 12.2773 5.76562 11.8203L5.13281 11.6797C2.58984 11.0469 1.35938 9.93359 1.35938 8.25781C1.35938 6.13672 3.26953 4.57812 5.83594 4.57812C7.60547 4.57812 9.23438 5.35156 10.2891 6.6875L8.60156 8.09375C7.86328 7.20312 6.9375 6.73438 5.8125 6.73438C4.57031 6.73438 3.73828 7.33203 3.72656 8.21094C3.73828 8.86719 4.18359 9.18359 5.67188 9.54688L6.32812 9.71094C9.22266 10.4258 10.5117 11.5977 10.5 13.4844C10.5117 15.7695 8.55469 17.3281 5.69531 17.3281ZM18.7969 17.3281C15.0703 17.3281 12.3984 14.5977 12.3984 10.9531C12.3984 7.28516 15.0352 4.57812 18.5625 4.57812C22.0898 4.57812 24.5391 7.28516 24.5391 10.9531C24.5391 11.2227 24.5273 11.5039 24.4922 11.7734H14.8828C15.1758 13.8359 16.7344 15.1719 18.8203 15.1719C20.3555 15.1719 21.4453 14.457 22.0078 13.2734L24.1406 14.1406C23.1797 16.0859 21.3164 17.3281 18.7969 17.3281ZM14.9766 9.64062H21.9844C21.8203 8 20.4727 6.73438 18.5625 6.73438C16.7461 6.73438 15.3867 7.87109 14.9766 9.64062ZM32.5547 15.0547C34.6641 15.0664 36.1758 13.3672 36.1875 10.9531C36.1758 8.53906 34.6641 6.83984 32.5547 6.85156C30.3984 6.83984 28.8984 8.55078 28.9219 10.9531C28.8984 13.3555 30.3984 15.0664 32.5547 15.0547ZM38.5078 17H36.0938V15.1719H36C35.2031 16.5898 33.9023 17.3281 32.1797 17.3281C28.8281 17.3281 26.4375 14.5859 26.4609 10.9531C26.4375 7.32031 28.8281 4.57812 32.1797 4.57812C33.8906 4.57812 35.1914 5.30469 36 6.71094H36.0938V4.90625H38.5078V17ZM53.0391 17H50.625V15.1719H50.5312C49.7344 16.5898 48.4336 17.3281 46.7109 17.3281C43.3594 17.3281 40.9688 14.5859 40.9922 10.9531C40.9688 7.32031 43.3594 4.57812 46.7109 4.57812C48.4219 4.57812 49.7227 5.30469 50.5312 6.71094H50.625V0.03125H53.0391V17ZM47.0859 15.0547C49.1953 15.0664 50.707 13.3672 50.7188 10.9531C50.707 8.53906 49.1953 6.83984 47.0859 6.85156C44.9297 6.83984 43.4297 8.55078 43.4531 10.9531C43.4297 13.3555 44.9297 15.0664 47.0859 15.0547ZM62.0391 22.0625V4.90625H64.4531V6.71094H64.5469C65.3438 5.30469 66.6445 4.57812 68.3672 4.57812C71.707 4.57812 74.0977 7.32031 74.0859 10.9531C74.0977 14.5859 71.707 17.3281 68.3672 17.3281C66.6445 17.3281 65.332 16.5898 64.5469 15.1719H64.4531V22.0625H62.0391ZM67.9922 15.0547C70.1367 15.0664 71.6367 13.3555 71.625 10.9531C71.6367 8.55078 70.1367 6.83984 67.9922 6.85156C65.8711 6.83984 64.3594 8.53906 64.3594 10.9531C64.3594 13.3672 65.8711 15.0664 67.9922 15.0547ZM82.2656 17.3281C78.6797 17.3281 75.9844 14.5859 75.9844 10.9531C75.9844 7.32031 78.6797 4.57812 82.2656 4.57812C85.8281 4.57812 88.5234 7.32031 88.5234 10.9531C88.5234 14.5859 85.8281 17.3281 82.2656 17.3281ZM82.2656 15.0547C84.5156 15.0664 86.1094 13.3672 86.1094 10.9531C86.1094 8.53906 84.5156 6.83984 82.2656 6.85156C79.9922 6.83984 78.3984 8.53906 78.3984 10.9531C78.3984 13.3672 79.9922 15.0664 82.2656 15.0547ZM95.0625 17.3281C93.082 17.3281 91.4531 16.5781 90.3047 15.1484L91.9922 13.7188C92.8477 14.7383 93.7617 15.1719 95.0625 15.1719C96.6094 15.1719 97.4883 14.5508 97.5 13.5078C97.4883 12.6875 96.9258 12.2773 95.1328 11.8203L94.5 11.6797C91.957 11.0469 90.7266 9.93359 90.7266 8.25781C90.7266 6.13672 92.6367 4.57812 95.2031 4.57812C96.9727 4.57812 98.6016 5.35156 99.6562 6.6875L97.9688 8.09375C97.2305 7.20312 96.3047 6.73438 95.1797 6.73438C93.9375 6.73438 93.1055 7.33203 93.0938 8.21094C93.1055 8.86719 93.5508 9.18359 95.0391 9.54688L95.6953 9.71094C98.5898 10.4258 99.8789 11.5977 99.8672 13.4844C99.8789 15.7695 97.9219 17.3281 95.0625 17.3281ZM101.297 6.875V4.90625H103.336V1.90625H105.773V4.90625H108.703V6.875H105.773V13.1562C105.762 14.4219 106.289 14.9961 107.484 14.9844C107.848 14.9961 108.27 14.9258 108.703 14.7969V17.0469C108.27 17.2109 107.707 17.3281 107.062 17.3281C104.73 17.3281 103.336 15.8047 103.336 13.2734V6.875H101.297Z" fill="black"/>
</svg>
